<svg width="500" height="500" viewBox="0 0 500 500" fill="none" xmlns="http://www.w3.org/2000/svg">
<path d="M250 500C388.071 500 500 388.071 500 250C500 111.929 388.071 0 250 0C111.929 0 0 111.929 0 250C0 388.071 111.929 500 250 500Z" fill="#FDB61C"/>
<path d="M136.079 199.547C136.079 174.729 123.505 154.222 100 137H154.632C164.263 144.334 172.066 153.797 177.431 164.647C182.796 175.498 185.578 187.443 185.558 199.547C185.578 211.652 182.796 223.596 177.431 234.447C172.066 245.298 164.263 254.76 154.632 262.094C172.371 269.49 182.462 287.54 182.462 313.373V362.596H132.995V313.373C132.995 288.768 121.249 271.546 100.013 262.107C123.518 244.872 136.091 224.378 136.091 199.56L136.079 199.547ZM243.287 199.547C243.287 174.729 230.713 154.222 207.208 137H261.853C271.481 144.335 279.282 153.799 284.645 164.649C290.008 175.5 292.787 187.444 292.767 199.547C292.787 211.651 290.008 223.595 284.645 234.445C279.282 245.296 271.481 254.759 261.853 262.094C279.579 269.49 289.683 287.54 289.683 313.373V362.596H240.203V313.373C240.203 288.768 228.444 271.546 207.208 262.107C230.713 244.872 243.287 224.378 243.287 199.56V199.547ZM350.52 199.547C350.52 174.729 337.947 154.222 314.441 137H369.074C378.704 144.334 386.507 153.797 391.872 164.647C397.237 175.498 400.019 187.443 400 199.547C400.019 211.652 397.237 223.596 391.872 234.447C386.507 245.298 378.704 254.76 369.074 262.094C386.812 269.49 396.903 287.54 396.903 313.373V362.596H347.424V313.373C347.424 288.768 335.677 271.546 314.441 262.107C337.947 244.872 350.52 224.378 350.52 199.56V199.547Z" fill="#4E2F3A"/>
</svg>
